<svg color="#d9d9d9" width="200" height="160" fill="none" xmlns="http://www.w3.org/2000/svg" class="hKz9OTe9ePzdJvGVBCe2"><path fill-rule="evenodd" clip-rule="evenodd" d="M52.956 49.479c-1.955 0-3.54-1.566-3.54-3.498 0-1.933 1.587-3.5 3.542-3.498l24.763.019v-12.25c0-4.835 2.162-8.752 7.143-8.752h28.292c4.981 0 7.087 3.895 7.087 8.73v12.25h24.8c1.955 0 3.54 1.567 3.54 3.5 0 1.932-1.585 3.499-3.54 3.499H52.956zm31.877-15.763c0-.967.793-1.75 1.771-1.75h24.792a1.76 1.76 0 011.771 1.75v7.016a1.76 1.76 0 01-1.771 1.75H86.604a1.76 1.76 0 01-1.77-1.75v-7.016zm36.705 92.784c4.981 0 9.015-1.711 9.015-6.547l3.87-63.45H63.559l3.888 61.245c0 4.836 4.035 8.752 9.016 8.752h45.075z" fill="currentColor"></path></svg>